<svg width="24" height="24" viewBox="0 0 24 24" fill="none" xmlns="http://www.w3.org/2000/svg">
    <path d="M15.5625 4.3125C16.6565 4.3125 17.7057 4.74711 18.4793 5.52069C19.2529 6.29428 19.6875 7.34347 19.6875 8.4375V15.5625C19.6875 16.6565 19.2529 17.7057 18.4793 18.4793C17.7057 19.2529 16.6565 19.6875 15.5625 19.6875H8.4375C7.34347 19.6875 6.29428 19.2529 5.52069 18.4793C4.74711 17.7057 4.3125 16.6565 4.3125 15.5625V8.4375C4.3125 7.34347 4.74711 6.29428 5.52069 5.52069C6.29428 4.74711 7.34347 4.3125 8.4375 4.3125H15.5625ZM15.5625 2.8125H8.4375C6.94702 2.81694 5.51887 3.41102 4.46494 4.46494C3.41102 5.51887 2.81694 6.94702 2.8125 8.4375V15.5625C2.81694 17.053 3.41102 18.4811 4.46494 19.5351C5.51887 20.589 6.94702 21.183 8.4375 21.1875H15.5625C17.053 21.183 18.4811 20.589 19.5351 19.5351C20.589 18.4811 21.183 17.053 21.1875 15.5625V8.4375C21.183 6.94702 20.589 5.51887 19.5351 4.46494C18.4811 3.41102 17.053 2.81694 15.5625 2.8125Z" fill="#F2F2F2"/>
    <path d="M16.9012 6C16.6888 6 16.481 6.06302 16.3044 6.18107C16.1277 6.29912 15.99 6.46691 15.9087 6.66323C15.8273 6.85954 15.8061 7.07558 15.8475 7.28398C15.889 7.49239 15.9913 7.68383 16.1416 7.83407C16.2918 7.98433 16.4832 8.08665 16.6916 8.12811C16.9 8.16956 17.1161 8.14828 17.3124 8.06696C17.5087 7.98564 17.6765 7.84794 17.7946 7.67126C17.9126 7.49458 17.9756 7.28687 17.9756 7.07438C17.9756 6.93328 17.9478 6.79358 17.8938 6.66323C17.8399 6.53288 17.7607 6.41445 17.6609 6.31468C17.5612 6.21491 17.4428 6.13577 17.3124 6.08179C17.182 6.02779 17.0423 6 16.9012 6Z" fill="#F2F2F2"/>
    <path d="M12.0506 8.7129C12.7064 8.71252 13.3476 8.90668 13.893 9.27079C14.4385 9.63491 14.8637 10.1526 15.1148 10.7584C15.3659 11.3642 15.4317 12.0309 15.3039 12.6742C15.176 13.3174 14.8603 13.9082 14.3965 14.372C13.9328 14.8357 13.342 15.1514 12.6988 15.2793C12.0555 15.4071 11.3888 15.3413 10.783 15.0902C10.1772 14.8391 9.65951 14.4139 9.29538 13.8684C8.93128 13.323 8.73712 12.6818 8.73749 12.026C8.73897 11.1478 9.08851 10.3059 9.70953 9.68494C10.3305 9.06392 11.1724 8.71438 12.0506 8.7129ZM12.0506 7.2129C11.0986 7.21476 10.1685 7.49876 9.37792 8.02905C8.58729 8.55934 7.97159 9.31209 7.60865 10.1922C7.24571 11.0723 7.15181 12.0402 7.3388 12.9737C7.52579 13.9071 7.9853 14.7642 8.65925 15.4366C9.3332 16.1089 10.1913 16.5665 11.1252 16.7513C12.0591 16.9361 13.0268 16.8399 13.9061 16.4749C14.7853 16.1099 15.5366 15.4925 16.0651 14.7006C16.5935 13.9088 16.8754 12.978 16.875 12.026C16.8748 11.3931 16.7497 10.7664 16.507 10.1818C16.2644 9.59722 15.9088 9.06624 15.4607 8.61921C15.0127 8.17217 14.4808 7.81785 13.8957 7.57654C13.3105 7.33524 12.6836 7.21166 12.0506 7.2129Z" fill="#F2F2F2"/>
</svg>
