<svg width="24" height="24" viewBox="0 0 24 24" fill="none" xmlns="http://www.w3.org/2000/svg">
    <path d="M16.3013 5.74875C16.794 5.75552 17.2804 5.86144 17.7314 6.06019C18.1824 6.25894 18.5888 6.54647 18.9263 6.90563C18.9263 6.90563 20.3588 6.62437 21.15 6.0675C21.15 6.0675 20.9513 7.17 19.6331 8.01375H19.6444C19.7456 8.01375 20.4844 7.995 21.6469 7.45125C21.6469 7.45125 21.4238 8.08687 19.9031 9.29625C19.995 12.1575 18.5794 17.4469 13.3406 19.3294C12.1901 19.7503 10.9751 19.9678 9.75 19.9725C7.7872 19.9815 5.86459 19.4164 4.21875 18.3469C4.5 18.375 4.75313 18.375 5.00625 18.375C8.10375 18.375 9.60375 16.785 9.52125 16.785H9.40688C6.78188 16.785 6.1425 14.2725 6.1425 14.2725C6.35275 14.3996 6.59665 14.4598 6.84188 14.445C7.15885 14.4384 7.47375 14.3924 7.77938 14.3081C4.81688 13.6069 4.9275 10.7644 4.9275 10.7644C5.32785 11.0316 5.79629 11.1786 6.2775 11.1881C6.35667 11.189 6.43574 11.1827 6.51375 11.1694C3.80813 9.02812 5.4375 6.4725 5.4375 6.4725C8.48625 10.0106 12.2344 10.1362 12.75 10.1362H12.8119C12.5344 8.475 13.2188 6.87937 15.0619 6.01125C15.4464 5.83468 15.8651 5.74506 16.2881 5.74875H16.3013ZM22.875 3.375L20.4506 5.0775C20.0803 5.29944 19.68 5.46681 19.2619 5.57437C18.4133 4.91177 17.3703 4.54674 16.2938 4.53562C15.6919 4.53006 15.0963 4.65814 14.55 4.91062C12.8288 5.71875 11.7825 7.11375 11.5744 8.78812C9.53667 8.36786 7.70061 7.27177 6.36375 5.6775L5.295 4.43812L4.41375 5.8125C3.84563 6.74839 3.62029 7.85257 3.77625 8.93625L3.70688 10.7231C3.69132 11.8574 4.06821 12.9623 4.77375 13.8506L4.96125 14.5819C5.23019 15.5262 5.77622 16.3681 6.52875 16.9987C6.02809 17.1083 5.51687 17.1624 5.00438 17.16C4.78125 17.16 4.55063 17.1506 4.31813 17.1319L0.0187531 16.7737L3.49688 19.3294C5.353 20.5506 7.5282 21.1969 9.75 21.1875C11.1174 21.1837 12.4738 20.9428 13.7588 20.475C16.3364 19.5551 18.4635 17.6823 19.7025 15.2419C20.5596 13.5754 21.0439 11.7424 21.1219 9.87C22.365 8.79937 22.7063 8.11687 22.7981 7.85625L23.7581 5.12437L22.4456 5.73562L22.875 3.375Z" fill="#F2F2F2"/>
</svg>
