<svg width="40" height="40" viewBox="0 0 40 40" fill="none" xmlns="http://www.w3.org/2000/svg">
<g clip-path="url(#clip0_916_598)">
<path d="M36.952 1.20669C35.9504 0.677529 34.9656 0.315882 33.9792 0.0045166L32.9202 1.143L38.9414 4.56113L40.0003 3.42264C38.9665 2.42955 37.9536 1.73583 36.952 1.20669ZM32.2389 1.87547L31.1799 3.01396L37.201 6.43209L38.26 5.2936L32.2389 1.87547ZM30.4083 3.84352L16.1165 19.2082L19.3895 20.0389L33.1875 5.41618L30.4083 3.84352ZM33.7753 5.78429L20.0532 20.3774L21.9102 22.656L36.4296 7.26164L33.7753 5.78429ZM15.7501 19.8666L14.1973 26.0025L21.0603 23.0454L19.1118 20.775L15.7501 19.8666Z" fill="black"/>
<path d="M6.00039 1.96038C2.67982 1.96038 -0.00292969 4.05626 -0.00292969 6.6503V35.3334C-0.00292969 37.9275 2.6799 40.0032 6.00039 40.0032H30.5291C33.8497 40.0032 36.5325 37.9275 36.5325 35.3334V12.8899L32.8738 16.7545V34.2461C32.8738 35.8444 31.2352 37.1447 29.1893 37.1447H7.34012C5.29429 37.1447 3.65561 35.8444 3.65561 34.2461V7.71631C3.65561 6.11807 5.29421 4.8379 7.34012 4.8379H24.7592L27.1024 1.95947L6.00039 1.96038Z" fill="black"/>
</g>
<defs>
<clipPath id="clip0_916_598">
<rect width="40" height="40" fill="white"/>
</clipPath>
</defs>
</svg>
