<svg width="20" height="20" viewBox="0 0 20 20" fill="none" xmlns="http://www.w3.org/2000/svg">
<g clip-path="url(#clip0_916_603)">
<path d="M10.0533 3.2537e-05C4.52461 -0.0235942 0.0237203 4.43004 9.35722e-05 9.94687C-0.0235331 15.4755 4.4301 19.9764 9.94693 20C15.4756 20.0237 19.9765 15.57 20.0001 10.0532C20.0355 4.52455 15.5701 0.0236592 10.0533 3.2537e-05ZM9.91149 2.69348C10.3958 2.69348 10.7975 2.87068 11.1283 3.21326C11.4709 3.54404 11.6362 3.9575 11.6362 4.44185C11.6362 4.9262 11.4709 5.32785 11.1283 5.67044C10.7975 6.00121 10.384 6.1666 9.91149 6.1666C9.41533 6.1666 9.01368 6.00121 8.67109 5.67044C8.34032 5.33967 8.16312 4.9262 8.16312 4.44185C8.16312 3.94569 8.34032 3.54404 8.68291 3.21326C9.01368 2.87068 9.42715 2.69348 9.91149 2.69348ZM7.0881 7.17074H11.6835V15.7354H13.0657V16.8341H7.0881V15.7354H8.45845V8.26938H7.0881V7.17074Z" fill="black"/>
</g>
<defs>
<clipPath id="clip0_916_603">
<rect width="20" height="20" fill="white"/>
</clipPath>
</defs>
</svg>
