<svg width="40" height="40" viewBox="0 0 40 40" fill="none" xmlns="http://www.w3.org/2000/svg">
<g clip-path="url(#clip0_916_886)">
<path d="M33.9741 25.492V34.6294H6.02428V25.492H0.652344V37.3154C0.652344 38.7978 1.85322 40 3.34232 40H36.6561C38.1438 40 39.3461 38.7991 39.3461 37.3154V25.492H33.9741Z" fill="black"/>
<path d="M20.485 0.352141L28.176 9.64562C28.176 9.64562 29.3461 10.7504 28.0772 10.7504C26.8083 10.7504 23.7434 10.7504 23.7434 10.7504C23.7434 10.7504 23.7434 11.4936 23.7434 12.6398C23.7434 15.9075 23.7434 21.8546 23.7434 24.279C23.7434 24.279 23.9155 24.9382 22.9228 24.9382C21.922 24.9382 17.5388 24.9382 16.8223 24.9382C16.1071 24.9382 16.1231 24.3831 16.1231 24.3831C16.1231 22.032 16.1231 15.8795 16.1231 12.7185C16.1231 11.6938 16.1231 11.0293 16.1231 11.0293C16.1231 11.0293 13.6653 11.0293 12.1228 11.0293C10.5831 11.0293 11.7426 9.87246 11.7426 9.87246C11.7426 9.87246 18.286 1.18609 19.1987 0.274752C19.8552 -0.385732 20.485 0.352141 20.485 0.352141Z" fill="black"/>
</g>
<defs>
<clipPath id="clip0_916_886">
<rect width="40" height="40" fill="white"/>
</clipPath>
</defs>
</svg>
