<svg width="120" height="120" viewBox="0 0 120 120" fill="none" xmlns="http://www.w3.org/2000/svg">
    <path d="M86.25 80.4312L60 95.1969L33.75 80.4312V64.8308L26.25 60.6641V84.8173L60 103.802L93.75 84.8173V60.6641L86.25 64.8308V80.4312Z" fill="black"/>
    <path d="M60 10.7759L7.5 37.9981V44.4982L60 73.6641L105 48.6649V69.375H112.5V37.9981L60 10.7759ZM97.5 44.2519L90 48.4184L60 65.086L30 48.4184L22.5 44.2519L17.3018 41.3639L60 19.2242L102.698 41.3639L97.5 44.2519Z" fill="black"/>
    <path d="M97.5 44.2519L90 48.4184L60 65.086L30 48.4184L22.5 44.2519L17.3018 41.3639L60 19.2242L102.698 41.3639L97.5 44.2519Z" fill="black"/>
</svg>
