<svg width="164" height="128" viewBox="0 0 164 128" fill="none" xmlns="http://www.w3.org/2000/svg">
    <path d="M42.561 42.0745V40.3814H55.2128V42.0745H42.561ZM54.228 43.0057V44.6989H44.4171V43.0057H54.228ZM44.455 48.5084H52.7128V50.2015H44.455V48.5084ZM44.455 53.7993H57.1447V55.4925H44.455V53.7993ZM44.455 56.5506H62.8267V58.2438H44.455V56.5506ZM42.7125 68.995V67.3019H60.5539V68.995H42.7125ZM54.228 69.9262V71.6194H44.4171V69.9262H54.228ZM44.455 75.3865H50.8188V77.0796H44.455V75.3865ZM44.455 74.4977V72.8045H54.2658V74.4977H44.455ZM52.4097 75.3865H76.6528V77.0796H52.4097V75.3865ZM56.3113 74.4977V72.8045H85.1758V74.4977H56.3113ZM56.3113 71.6194V69.9262H85.1758V71.6194H56.3113ZM64.1903 58.2438V56.5506H69.0768V58.2438H64.1903ZM71.7284 51.1327H76.6149V52.8258H71.7284V51.1327ZM70.4784 51.1327V52.8258H44.4171V51.1327H70.4784ZM65.4025 47.4078H44.4171V45.7147H65.4025V47.4078ZM76.6149 47.4078H66.8041V45.7147H76.6149V47.4078ZM41.4246 24.1275C51.1288 24.1275 56.5695 24.1275 66.2737 24.1275V25.8206C56.5695 25.8206 51.1288 25.8206 41.4246 25.8206V24.1275ZM41.4246 26.9212C52.7856 26.9212 59.1553 26.9212 70.5163 26.9212V28.6143C59.1553 28.6143 52.7856 28.6143 41.4246 28.6143V26.9212ZM41.4246 32.2121C47.5489 32.2121 50.9825 32.2121 57.1068 32.2121V33.9053H41.4246V32.2121ZM41.4246 37.5455H45.8186V39.2386H41.4246V37.5455ZM41.4246 59.175H48.8869V60.8681H41.4246V59.175ZM41.4246 64.5929H45.8186V66.286H41.4246V64.5929ZM40.2124 82.4553H38.773V80.8468H40.2124V82.4553ZM40.2124 79.7463H38.773V78.1378H40.2124V79.7463ZM40.2124 77.0373H38.773V75.4289H40.2124V77.0373ZM40.2124 74.4553H38.773V72.8469H40.2124V74.4553ZM40.2124 71.7887H38.773V70.1802H40.2124V71.7887ZM40.2124 68.995H38.773V67.3866H40.2124V68.995ZM40.2124 66.286H38.773V64.6776H40.2124V66.286ZM40.2124 63.6194H38.773V62.0109H40.2124V63.6194ZM40.2124 60.8258H38.773V59.2173H40.2124V60.8258ZM40.2124 58.3284H38.773V56.72H40.2124V58.3284ZM40.2124 55.4925H38.773V53.884H40.2124V55.4925ZM40.2124 52.8258H38.773V51.2173H40.2124V52.8258ZM40.2124 50.1591H38.773V48.5507H40.2124V50.1591ZM40.2124 47.3655H38.773V45.757H40.2124V47.3655ZM40.2124 44.6565H38.773V43.0481H40.2124V44.6565ZM40.2124 42.0322H38.773V40.4237H40.2124V42.0322ZM40.2124 39.1962H38.773V37.5878H40.2124V39.1962ZM40.2124 36.6989H38.773V35.0904H40.2124V36.6989ZM40.2124 33.8629H38.773V32.2545H40.2124V33.8629ZM40.2124 31.1963H38.773V29.5878H40.2124V31.1963ZM40.2124 28.5719H38.773V26.9635H40.2124V28.5719ZM40.2124 25.736H38.773V24.1275H40.2124V25.736ZM45.8186 82.4553H41.4246V80.7622H45.8186V82.4553ZM44.455 79.7886V78.0955H89.7213V79.7886H44.455Z" fill="#716D6D"/>
    <path fill-rule="evenodd" clip-rule="evenodd" d="M89.6835 101.545L89.7213 88.5505H102C103.629 84.5294 99.9489 69.9262 94.3806 57.3972C94.0775 54.7305 93.8503 52.3602 93.6609 50.1591H54.4174V48.466H93.5093C92.7517 38.7306 93.1305 33.5243 94.7972 28.191C95.9715 24.3815 97.7519 20.826 99.9489 17.736H29V88.5505H75.7816V107.386C77.9407 106.032 80.6302 104.931 83.9257 104.042C85.1 103.746 86.994 102.942 89.6835 101.545ZM42.561 40.3814V42.0745H55.2128V40.3814H42.561ZM54.228 44.6989V43.0057H44.4171V44.6989H54.228ZM52.7128 48.5084H44.455V50.2015H52.7128V48.5084ZM57.1447 53.7993H44.455V55.4925H57.1447V53.7993ZM62.8267 56.5506H44.455V58.2438H62.8267V56.5506ZM42.7125 67.3019V68.995H60.5539V67.3019H42.7125ZM54.228 71.6194V69.9262H44.4171V71.6194H54.228ZM50.8188 75.3865H44.455V77.0796H50.8188V75.3865ZM44.455 72.8045V74.4977H54.2658V72.8045H44.455ZM76.6528 75.3865H52.4097V77.0796H76.6528V75.3865ZM56.3113 72.8045V74.4977H85.1758V72.8045H56.3113ZM56.3113 69.9262V71.6194H85.1758V69.9262H56.3113ZM64.1903 56.5506V58.2438H69.0768V56.5506H64.1903ZM76.6149 51.1327H71.7284V52.8258H76.6149V51.1327ZM70.4784 52.8258V51.1327H44.4171V52.8258H70.4784ZM44.4171 47.4078H65.4025V45.7147H44.4171V47.4078ZM66.8041 47.4078H76.6149V45.7147H66.8041V47.4078ZM66.2737 24.1275C56.5695 24.1275 51.1288 24.1275 41.4246 24.1275V25.8206C51.1288 25.8206 56.5695 25.8206 66.2737 25.8206V24.1275ZM70.5163 26.9212C59.1553 26.9212 52.7856 26.9212 41.4246 26.9212V28.6143C52.7856 28.6143 59.1553 28.6143 70.5163 28.6143V26.9212ZM57.1068 32.2121C50.9825 32.2121 47.5489 32.2121 41.4246 32.2121V33.9053H57.1068V32.2121ZM45.8186 37.5455H41.4246V39.2386H45.8186V37.5455ZM48.8869 59.175H41.4246V60.8681H48.8869V59.175ZM45.8186 64.5929H41.4246V66.286H45.8186V64.5929ZM38.773 82.4553H40.2124V80.8468H38.773V82.4553ZM38.773 79.7463H40.2124V78.1378H38.773V79.7463ZM38.773 77.0373H40.2124V75.4289H38.773V77.0373ZM38.773 74.4553H40.2124V72.8469H38.773V74.4553ZM38.773 71.7887H40.2124V70.1802H38.773V71.7887ZM38.773 68.995H40.2124V67.3866H38.773V68.995ZM38.773 66.286H40.2124V64.6776H38.773V66.286ZM38.773 63.6194H40.2124V62.0109H38.773V63.6194ZM38.773 60.8258H40.2124V59.2173H38.773V60.8258ZM38.773 58.3284H40.2124V56.72H38.773V58.3284ZM38.773 55.4925H40.2124V53.884H38.773V55.4925ZM38.773 52.8258H40.2124V51.2173H38.773V52.8258ZM38.773 50.1591H40.2124V48.5507H38.773V50.1591ZM38.773 47.3655H40.2124V45.757H38.773V47.3655ZM38.773 44.6565H40.2124V43.0481H38.773V44.6565ZM38.773 42.0322H40.2124V40.4237H38.773V42.0322ZM38.773 39.1962H40.2124V37.5878H38.773V39.1962ZM38.773 36.6989H40.2124V35.0904H38.773V36.6989ZM38.773 33.8629H40.2124V32.2545H38.773V33.8629ZM38.773 31.1963H40.2124V29.5878H38.773V31.1963ZM38.773 28.5719H40.2124V26.9635H38.773V28.5719ZM38.773 25.736H40.2124V24.1275H38.773V25.736ZM41.4246 82.4553H45.8186V80.7622H41.4246V82.4553ZM44.455 78.0955V79.7886H89.7213V78.0955H44.455Z" fill="#716D6D"/>
    <path d="M57.1068 32.2122H41.4245V33.9053H57.1068V32.2122Z" fill="white"/>
    <path d="M70.5162 51.1327H44.4549V52.8258H70.5162V51.1327Z" fill="white"/>
    <path d="M69.0769 56.5507H64.1904V58.2438H69.0769V56.5507Z" fill="white"/>
    <path d="M65.4403 45.7147H44.4549V47.4078H65.4403V45.7147Z" fill="white"/>
    <path d="M52.7127 48.5084H44.4549V50.2015H52.7127V48.5084Z" fill="white"/>
    <path d="M76.6529 75.3865H52.4098V77.0796H76.6529V75.3865Z" fill="white"/>
    <path d="M45.8186 37.5454H41.4245V39.2385H45.8186V37.5454Z" fill="white"/>
    <path d="M66.2737 24.1276H41.4245V25.8207H66.2737V24.1276Z" fill="white"/>
    <path d="M70.5162 26.9211H41.4245V28.6143H70.5162V26.9211Z" fill="white"/>
    <path d="M54.2658 43.0057H44.4549V44.6989H54.2658V43.0057Z" fill="white"/>
    <path d="M55.2127 40.3814H42.5608V42.0745H55.2127V40.3814Z" fill="white"/>
    <path d="M76.6526 45.7147H66.8417V47.4078H76.6526V45.7147Z" fill="white"/>
    <path d="M76.6148 51.1327H71.7283V52.8258H76.6148V51.1327Z" fill="white"/>
    <path d="M40.2121 24.1276H38.7726V25.736H40.2121V24.1276Z" fill="white"/>
    <path d="M40.2121 26.9635H38.7726V28.572H40.2121V26.9635Z" fill="white"/>
    <path d="M40.2121 29.5878H38.7726V31.1963H40.2121V29.5878Z" fill="white"/>
    <path d="M40.2121 48.5507H38.7726V50.1591H40.2121V48.5507Z" fill="white"/>
    <path d="M40.2121 32.2545H38.7726V33.8629H40.2121V32.2545Z" fill="white"/>
    <path d="M40.2121 51.175H38.7726V52.7834H40.2121V51.175Z" fill="white"/>
    <path d="M40.2121 40.3814H38.7726V41.9899H40.2121V40.3814Z" fill="white"/>
    <path d="M40.2121 35.0904H38.7726V36.6989H40.2121V35.0904Z" fill="white"/>
    <path d="M40.2121 37.5878H38.7726V39.1962H40.2121V37.5878Z" fill="white"/>
    <path d="M40.2121 43.048H38.7726V44.6565H40.2121V43.048Z" fill="white"/>
    <path d="M40.2121 45.7571H38.7726V47.3655H40.2121V45.7571Z" fill="white"/>
    <path d="M40.2121 59.2173H38.7726V60.8257H40.2121V59.2173Z" fill="white"/>
    <path d="M40.2121 56.6776H38.7726V58.2861H40.2121V56.6776Z" fill="white"/>
    <path d="M40.2121 62.011H38.7726V63.6194H40.2121V62.011Z" fill="white"/>
    <path d="M40.2121 53.884H38.7726V55.4925H40.2121V53.884Z" fill="white"/>
    <path d="M40.2121 48.5507H38.7726V50.1591H40.2121V48.5507Z" fill="white"/>
    <path d="M40.2121 40.3814H38.7726V41.9899H40.2121V40.3814Z" fill="white"/>
    <path d="M40.2121 43.048H38.7726V44.6565H40.2121V43.048Z" fill="white"/>
    <path d="M40.2121 51.175H38.7726V52.7834H40.2121V51.175Z" fill="white"/>
    <path d="M40.2121 64.6776H38.7726V66.286H40.2121V64.6776Z" fill="white"/>
    <path d="M40.2121 45.7571H38.7726V47.3655H40.2121V45.7571Z" fill="white"/>
    <path d="M45.8186 64.593H41.4245V66.2861H45.8186V64.593Z" fill="white"/>
    <path d="M48.8868 59.175H41.4245V60.8681H48.8868V59.175Z" fill="white"/>
    <path d="M40.2121 80.8045H38.7726V82.413H40.2121V80.8045Z" fill="white"/>
    <path d="M45.8186 37.5454H41.4245V39.2385H45.8186V37.5454Z" fill="white"/>
    <path d="M40.2121 78.1378H38.7726V79.7463H40.2121V78.1378Z" fill="white"/>
    <path d="M40.2121 70.1802H38.7726V71.7886H40.2121V70.1802Z" fill="white"/>
    <path d="M40.2121 72.8469H38.7726V74.4553H40.2121V72.8469Z" fill="white"/>
    <path d="M57.1068 32.2122H41.4245V33.9053H57.1068V32.2122Z" fill="white"/>
    <path d="M40.2121 75.4288H38.7726V77.0373H40.2121V75.4288Z" fill="white"/>
    <path d="M40.2121 67.3866H38.7726V68.9951H40.2121V67.3866Z" fill="white"/>
    <path d="M45.8186 80.7621H41.4245V82.4553H45.8186V80.7621Z" fill="white"/>
    <path d="M40.2121 26.9635H38.7726V28.572H40.2121V26.9635Z" fill="white"/>
    <path d="M40.2121 29.5878H38.7726V31.1963H40.2121V29.5878Z" fill="white"/>
    <path d="M40.2121 35.0904H38.7726V36.6989H40.2121V35.0904Z" fill="white"/>
    <path d="M40.2121 32.2545H38.7726V33.8629H40.2121V32.2545Z" fill="white"/>
    <path d="M40.2121 37.5878H38.7726V39.1962H40.2121V37.5878Z" fill="white"/>
    <path d="M40.2121 24.1276H38.7726V25.736H40.2121V24.1276Z" fill="white"/>
    <path d="M54.2658 43.0057H44.4549V44.6989H54.2658V43.0057Z" fill="white"/>
    <path d="M60.5542 67.3019H42.7128V68.995H60.5542V67.3019Z" fill="white"/>
    <path d="M65.4403 45.7147H44.4549V47.4078H65.4403V45.7147Z" fill="white"/>
    <path d="M66.2737 24.1276H41.4245V25.8207H66.2737V24.1276Z" fill="white"/>
    <path d="M76.6526 45.7147H66.8417V47.4078H76.6526V45.7147Z" fill="white"/>
    <path d="M70.5162 26.9211H41.4245V28.6143H70.5162V26.9211Z" fill="white"/>
    <path d="M50.8187 75.3865H44.4549V77.0796H50.8187V75.3865Z" fill="white"/>
    <path d="M54.2658 72.8045H44.4549V74.4976H54.2658V72.8045Z" fill="white"/>
    <path d="M76.6529 75.3865H52.4098V77.0796H76.6529V75.3865Z" fill="white"/>
    <mask id="path-62-inside-1_433_501" fill="white">
        <path d="M95.9742 8.29694C85.9739 10.2863 77.2994 18.6673 73.9281 29.7148C71.9584 36.064 71.8826 42.4132 73.5872 57.7358C75.0283 66.5089 78.1685 71.37 85.3882 80C96.5181 83.9539 102.758 84.863 113.888 80C121.011 75.9935 124.538 69.7487 128.968 57.4396C129.574 52.3602 129.839 48.2967 129.839 42.6248C129.877 33.5243 129.536 31.6619 126.771 25.2704C125.255 21.8842 124.46 20.6567 121.581 17.4397C117.717 13.1223 114.157 10.7519 109.232 9.18582C105.899 8.0853 99.1561 7.66202 95.9742 8.29694Z"/>
        <path d="M85.3882 80V87.5C96.5176 90.2498 102.758 90.4541 113.888 87.5V80C102.758 84.863 96.5181 83.9539 85.3882 80Z"/>
    </mask>
    <path d="M95.9742 8.29694C85.9739 10.2863 77.2994 18.6673 73.9281 29.7148C71.9584 36.064 71.8826 42.4132 73.5872 57.7358C75.0283 66.5089 78.1685 71.37 85.3882 80C96.5181 83.9539 102.758 84.863 113.888 80C121.011 75.9935 124.538 69.7487 128.968 57.4396C129.574 52.3602 129.839 48.2967 129.839 42.6248C129.877 33.5243 129.536 31.6619 126.771 25.2704C125.255 21.8842 124.46 20.6567 121.581 17.4397C117.717 13.1223 114.157 10.7519 109.232 9.18582C105.899 8.0853 99.1561 7.66202 95.9742 8.29694Z" fill="black"/>
    <path d="M85.3882 80V87.5C96.5176 90.2498 102.758 90.4541 113.888 87.5V80C102.758 84.863 96.5181 83.9539 85.3882 80Z" fill="#E5E5E5"/>
    <path d="M85.2208 80.4712C90.7945 82.4512 95.1994 83.6904 99.6251 83.8062C104.062 83.9223 108.479 82.909 114.088 80.4582L113.688 79.5418C108.167 81.954 103.899 82.9177 99.6513 82.8065C95.392 82.6951 91.1118 81.5027 85.5556 79.5288L85.2208 80.4712ZM95.9742 8.29694L96.1693 9.27772L96.1699 9.2776L95.9742 8.29694ZM73.9281 29.7148L74.8832 30.0111L74.8846 30.0067L73.9281 29.7148ZM73.5872 57.7358L72.5934 57.8464L72.5962 57.8723L72.6004 57.8979L73.5872 57.7358ZM128.968 57.4396L129.908 57.7782L129.947 57.6711L129.961 57.558L128.968 57.4396ZM129.839 42.6248L128.839 42.6206V42.6248H129.839ZM126.771 25.2704L127.688 24.8733L127.683 24.862L126.771 25.2704ZM121.581 17.4397L122.326 16.7729L121.581 17.4397ZM109.232 9.18582L108.919 10.1355L108.929 10.1388L109.232 9.18582ZM85.3882 87.5H84.3882V88.283L85.1483 88.4708L85.3882 87.5ZM85.3882 80H86.3882V79.6369L86.1552 79.3584L85.3882 80ZM113.888 80L113.398 79.1284L112.888 79.4151V80H113.888ZM113.888 87.5L114.145 88.4665L114.888 88.2692V87.5H113.888ZM95.7791 7.31615C85.3662 9.38764 76.4343 18.0761 72.9717 29.4229L74.8846 30.0067C78.1646 19.2585 86.5816 11.185 96.1693 9.27772L95.7791 7.31615ZM72.973 29.4185C70.9357 35.9855 70.8885 42.5212 72.5934 57.8464L74.5811 57.6253C72.8768 42.3051 72.9811 36.1425 74.8832 30.0111L72.973 29.4185ZM129.961 57.558C130.571 52.4404 130.839 48.3373 130.839 42.6248H128.839C128.839 48.2561 128.576 52.2801 127.975 57.3211L129.961 57.558ZM130.839 42.629C130.858 38.0857 130.784 35.2598 130.34 32.7571C129.893 30.2339 129.076 28.0812 127.688 24.8733L125.853 25.6675C127.23 28.8511 127.967 30.8254 128.371 33.1064C128.78 35.4079 128.858 38.0634 128.839 42.6206L130.839 42.629ZM127.683 24.862C126.919 23.1527 126.315 21.9408 125.521 20.7403C124.731 19.5447 123.773 18.3892 122.326 16.7729L120.836 18.1066C122.268 19.7072 123.147 20.7739 123.853 21.8428C124.556 22.9069 125.107 24.0018 125.858 25.6788L127.683 24.862ZM122.326 16.7729C118.357 12.3375 114.648 9.85902 109.535 8.23285L108.929 10.1388C113.665 11.6449 117.078 13.9071 120.836 18.1066L122.326 16.7729ZM109.546 8.23623C107.762 7.6473 105.146 7.25899 102.612 7.09273C100.081 6.9267 97.4974 6.97328 95.7785 7.31627L96.1699 9.2776C97.6329 8.98568 100.011 8.92643 102.481 9.08844C104.947 9.25022 107.369 9.62381 108.919 10.1354L109.546 8.23623ZM86.3882 87.5V80H84.3882V87.5H86.3882ZM112.888 80V87.5H114.888V80H112.888ZM72.6004 57.8979C74.0848 66.9346 77.3608 71.963 84.6212 80.6416L86.1552 79.3584C78.9762 70.777 75.9717 66.0833 74.574 57.5738L72.6004 57.8979ZM114.378 80.8716C121.842 76.6734 125.47 70.1123 129.908 57.7782L128.027 57.1009C123.606 69.3852 120.18 75.3136 113.398 79.1284L114.378 80.8716ZM85.1483 88.4708C90.7464 89.854 95.176 90.6128 99.6322 90.639C104.093 90.6652 108.528 89.9573 114.145 88.4665L113.632 86.5335C108.118 87.9969 103.868 88.6638 99.6439 88.639C95.4149 88.6141 91.1594 87.8959 85.628 86.5292L85.1483 88.4708Z" fill="black" mask="url(#path-62-inside-1_433_501)"/>
    <mask id="path-64-inside-2_433_501" fill="white">
        <path d="M155.278 121.264C155.24 120.646 155.164 120.085 155.088 119.467C155.012 118.85 154.936 118.232 154.822 117.671C154.708 117.054 154.594 116.492 154.48 115.875C154.289 115.033 154.099 114.191 153.909 113.405C153.719 112.619 153.491 111.945 153.262 111.328C152.844 110.149 152.312 109.026 151.741 108.016C151.437 107.51 151.132 107.005 150.79 106.5C150.562 106.163 150.334 105.883 150.067 105.546C149.953 105.377 149.801 105.209 149.687 105.097C149.421 104.816 149.154 104.479 148.888 104.198C148.812 104.142 148.736 104.03 148.698 103.974C146.226 101.448 142.878 99.3708 138.39 97.406C137.135 96.8447 135.917 96.2833 134.7 95.6097C131.049 93.701 127.473 91.2311 123.175 87.7507L119.751 85L116.785 85.8982C115.986 86.1227 115.187 86.3473 114.426 86.5718C114.16 86.6279 113.932 86.6841 113.665 86.7963C113.133 86.9086 112.638 87.077 112.106 87.1893C111.802 87.2454 111.497 87.3016 111.193 87.4138C110.737 87.5261 110.28 87.6384 109.824 87.6945C109.519 87.7507 109.177 87.8068 108.873 87.8629C108.454 87.9191 108.036 88.0313 107.617 88.0875C107.275 88.1436 106.971 88.1997 106.629 88.2559C106.21 88.312 105.83 88.3681 105.411 88.4243C105.069 88.4804 104.765 88.4804 104.422 88.5366C104.042 88.5927 103.624 88.6488 103.243 88.6488C102.901 88.6488 102.597 88.705 102.254 88.705C101.874 88.705 101.493 88.7611 101.113 88.7611C100.771 88.7611 100.466 88.7611 100.124 88.7611C99.8578 88.7611 99.5535 88.7611 99.2873 88.7611C99.1732 88.7611 99.0971 88.7611 98.983 88.7611C98.6026 88.7611 98.1842 88.7611 97.8038 88.7611C97.4615 88.7611 97.1191 88.7611 96.7768 88.705C96.3964 88.705 95.978 88.6488 95.5976 88.6488C95.2553 88.6488 94.913 88.5927 94.5706 88.5927C94.1522 88.5366 93.7718 88.4804 93.3534 88.4243C93.0111 88.3681 92.6688 88.3682 92.3264 88.312C91.908 88.2559 91.4896 88.1997 91.0712 88.0875C90.7289 88.0313 90.3865 87.9752 90.0442 87.9191C89.6258 87.8629 89.1693 87.7507 88.7509 87.6384C88.4086 87.5822 88.1043 87.5261 87.7619 87.4138C87.3055 87.3016 86.849 87.1893 86.3545 87.077C86.0502 87.0209 85.7079 86.9086 85.4036 86.8525C84.8711 86.7402 84.3386 86.5718 83.806 86.4034C83.5398 86.3473 83.2735 86.235 83.0073 86.1789C82.2085 85.9543 81.3716 85.6736 80.5348 85.393C80.4968 85.393 80.4587 85.393 80.4207 85.393C80.3827 85.393 80.3827 85.393 80.3446 85.393C80.3066 85.393 80.2685 85.393 80.2305 85.393C80.1925 85.393 80.1544 85.393 80.1164 85.4491C80.0784 85.4491 80.0403 85.5052 79.9643 85.5052C79.9262 85.5052 79.8882 85.5614 79.8121 85.5614C79.7741 85.5614 79.698 85.6175 79.6599 85.6175C79.6219 85.6175 79.5458 85.6736 79.5078 85.7298C79.4317 85.7859 79.3937 85.7859 79.3176 85.842C79.2415 85.8982 79.2035 85.8982 79.1274 85.9543C79.0513 86.0104 78.9753 86.0666 78.8992 86.0666C78.8231 86.1227 78.747 86.1789 78.671 86.1789C78.5949 86.235 78.5188 86.2911 78.4047 86.3473C78.3286 86.4034 78.2526 86.4595 78.1384 86.5157C78.0624 86.5718 77.9483 86.6279 77.8342 86.6841C77.7581 86.7402 77.644 86.7963 77.5679 86.8525C77.4538 86.9086 77.3397 86.9648 77.2636 87.077C77.1495 87.1332 77.0734 87.1893 76.9593 87.2454C76.8452 87.3016 76.7311 87.4138 76.6169 87.47C76.5028 87.5261 76.4268 87.5822 76.3127 87.6945C76.1985 87.7507 76.0464 87.8629 75.9323 87.9752C75.8182 88.0313 75.7041 88.1436 75.5899 88.1997C75.4758 88.312 75.3237 88.3681 75.1715 88.4804C75.0574 88.5366 74.9433 88.6488 74.8292 88.705C74.677 88.8172 74.5249 88.9295 74.3727 89.0418C74.2586 89.0979 74.1445 89.2102 74.0304 89.2663C73.8783 89.3786 73.7261 89.4909 73.5359 89.6031C73.4218 89.7154 73.3077 89.7715 73.1555 89.8838C72.9653 89.9961 72.7752 90.1645 72.585 90.2768C72.4709 90.3329 72.3948 90.4452 72.2807 90.5013C71.9764 90.7259 71.6721 90.9504 71.3678 91.1749C70.3027 91.9608 69.3518 92.6345 68.4009 93.3081C67.7923 93.7572 67.2217 94.1501 66.6511 94.5431C66.2708 94.8238 65.9284 95.0483 65.548 95.2728C65.1296 95.5535 64.7493 95.8342 64.3689 96.0587C63.9124 96.3394 63.456 96.6201 63.0756 96.8447C62.6572 97.0692 62.2768 97.2937 61.9345 97.5183C61.5921 97.6867 61.2498 97.8551 60.9455 98.0235C60.6412 98.1919 60.375 98.248 60.1087 98.3603C58.435 98.9217 56.9516 99.5953 55.5822 100.381C55.316 100.55 55.0497 100.662 54.7834 100.83C54.2509 101.167 53.7564 101.448 53.3 101.841C52.6914 102.29 52.1208 102.795 51.5503 103.3C51.4742 103.356 51.3981 103.413 51.322 103.525C50.9036 103.918 50.5613 104.311 50.1809 104.76C49.6484 105.377 49.1539 106.107 48.7355 106.837C46.3772 110.71 45.3882 115.931 45.3882 122.948V128H79.9262C98.945 128 123.669 127.832 134.852 127.607L155.24 127.27V124.632C155.469 123.565 155.393 122.443 155.278 121.264Z"/>
    </mask>
    <path d="M155.278 121.264C155.24 120.646 155.164 120.085 155.088 119.467C155.012 118.85 154.936 118.232 154.822 117.671C154.708 117.054 154.594 116.492 154.48 115.875C154.289 115.033 154.099 114.191 153.909 113.405C153.719 112.619 153.491 111.945 153.262 111.328C152.844 110.149 152.312 109.026 151.741 108.016C151.437 107.51 151.132 107.005 150.79 106.5C150.562 106.163 150.334 105.883 150.067 105.546C149.953 105.377 149.801 105.209 149.687 105.097C149.421 104.816 149.154 104.479 148.888 104.198C148.812 104.142 148.736 104.03 148.698 103.974C146.226 101.448 142.878 99.3708 138.39 97.406C137.135 96.8447 135.917 96.2833 134.7 95.6097C131.049 93.701 127.473 91.2311 123.175 87.7507L119.751 85L116.785 85.8982C115.986 86.1227 115.187 86.3473 114.426 86.5718C114.16 86.6279 113.932 86.6841 113.665 86.7963C113.133 86.9086 112.638 87.077 112.106 87.1893C111.802 87.2454 111.497 87.3016 111.193 87.4138C110.737 87.5261 110.28 87.6384 109.824 87.6945C109.519 87.7507 109.177 87.8068 108.873 87.8629C108.454 87.9191 108.036 88.0313 107.617 88.0875C107.275 88.1436 106.971 88.1997 106.629 88.2559C106.21 88.312 105.83 88.3681 105.411 88.4243C105.069 88.4804 104.765 88.4804 104.422 88.5366C104.042 88.5927 103.624 88.6488 103.243 88.6488C102.901 88.6488 102.597 88.705 102.254 88.705C101.874 88.705 101.493 88.7611 101.113 88.7611C100.771 88.7611 100.466 88.7611 100.124 88.7611C99.8578 88.7611 99.5535 88.7611 99.2873 88.7611C99.1732 88.7611 99.0971 88.7611 98.983 88.7611C98.6026 88.7611 98.1842 88.7611 97.8038 88.7611C97.4615 88.7611 97.1191 88.7611 96.7768 88.705C96.3964 88.705 95.978 88.6488 95.5976 88.6488C95.2553 88.6488 94.913 88.5927 94.5706 88.5927C94.1522 88.5366 93.7718 88.4804 93.3534 88.4243C93.0111 88.3681 92.6688 88.3682 92.3264 88.312C91.908 88.2559 91.4896 88.1997 91.0712 88.0875C90.7289 88.0313 90.3865 87.9752 90.0442 87.9191C89.6258 87.8629 89.1693 87.7507 88.7509 87.6384C88.4086 87.5822 88.1043 87.5261 87.7619 87.4138C87.3055 87.3016 86.849 87.1893 86.3545 87.077C86.0502 87.0209 85.7079 86.9086 85.4036 86.8525C84.8711 86.7402 84.3386 86.5718 83.806 86.4034C83.5398 86.3473 83.2735 86.235 83.0073 86.1789C82.2085 85.9543 81.3716 85.6736 80.5348 85.393C80.4968 85.393 80.4587 85.393 80.4207 85.393C80.3827 85.393 80.3827 85.393 80.3446 85.393C80.3066 85.393 80.2685 85.393 80.2305 85.393C80.1925 85.393 80.1544 85.393 80.1164 85.4491C80.0784 85.4491 80.0403 85.5052 79.9643 85.5052C79.9262 85.5052 79.8882 85.5614 79.8121 85.5614C79.7741 85.5614 79.698 85.6175 79.6599 85.6175C79.6219 85.6175 79.5458 85.6736 79.5078 85.7298C79.4317 85.7859 79.3937 85.7859 79.3176 85.842C79.2415 85.8982 79.2035 85.8982 79.1274 85.9543C79.0513 86.0104 78.9753 86.0666 78.8992 86.0666C78.8231 86.1227 78.747 86.1789 78.671 86.1789C78.5949 86.235 78.5188 86.2911 78.4047 86.3473C78.3286 86.4034 78.2526 86.4595 78.1384 86.5157C78.0624 86.5718 77.9483 86.6279 77.8342 86.6841C77.7581 86.7402 77.644 86.7963 77.5679 86.8525C77.4538 86.9086 77.3397 86.9648 77.2636 87.077C77.1495 87.1332 77.0734 87.1893 76.9593 87.2454C76.8452 87.3016 76.7311 87.4138 76.6169 87.47C76.5028 87.5261 76.4268 87.5822 76.3127 87.6945C76.1985 87.7507 76.0464 87.8629 75.9323 87.9752C75.8182 88.0313 75.7041 88.1436 75.5899 88.1997C75.4758 88.312 75.3237 88.3681 75.1715 88.4804C75.0574 88.5366 74.9433 88.6488 74.8292 88.705C74.677 88.8172 74.5249 88.9295 74.3727 89.0418C74.2586 89.0979 74.1445 89.2102 74.0304 89.2663C73.8783 89.3786 73.7261 89.4909 73.5359 89.6031C73.4218 89.7154 73.3077 89.7715 73.1555 89.8838C72.9653 89.9961 72.7752 90.1645 72.585 90.2768C72.4709 90.3329 72.3948 90.4452 72.2807 90.5013C71.9764 90.7259 71.6721 90.9504 71.3678 91.1749C70.3027 91.9608 69.3518 92.6345 68.4009 93.3081C67.7923 93.7572 67.2217 94.1501 66.6511 94.5431C66.2708 94.8238 65.9284 95.0483 65.548 95.2728C65.1296 95.5535 64.7493 95.8342 64.3689 96.0587C63.9124 96.3394 63.456 96.6201 63.0756 96.8447C62.6572 97.0692 62.2768 97.2937 61.9345 97.5183C61.5921 97.6867 61.2498 97.8551 60.9455 98.0235C60.6412 98.1919 60.375 98.248 60.1087 98.3603C58.435 98.9217 56.9516 99.5953 55.5822 100.381C55.316 100.55 55.0497 100.662 54.7834 100.83C54.2509 101.167 53.7564 101.448 53.3 101.841C52.6914 102.29 52.1208 102.795 51.5503 103.3C51.4742 103.356 51.3981 103.413 51.322 103.525C50.9036 103.918 50.5613 104.311 50.1809 104.76C49.6484 105.377 49.1539 106.107 48.7355 106.837C46.3772 110.71 45.3882 115.931 45.3882 122.948V128H79.9262C98.945 128 123.669 127.832 134.852 127.607L155.24 127.27V124.632C155.469 123.565 155.393 122.443 155.278 121.264Z" fill="white" stroke="black" stroke-width="2" mask="url(#path-64-inside-2_433_501)"/>
</svg>
